<?xml version="1.0" encoding="utf-8"?>
<!-- Generator: Adobe Illustrator 20.1.0, SVG Export Plug-In . SVG Version: 6.00 Build 0)  -->
<svg version="1.1" id="Layer_2_copy" xmlns="http://www.w3.org/2000/svg" xmlns:xlink="http://www.w3.org/1999/xlink" x="0px"
	 y="0px" viewBox="0 0 571.4 88.8" style="enable-background:new 0 0 571.4 88.8;" xml:space="preserve">
<style type="text/css">
	.st0{fill:#085A0A;}
	.st1{fill:#FFFFFF;}
</style>
<path id="Name" class="st0" d="M21.6,41.3l-3.9,4.6c-1.4-1.8-3.5-3-5.4-3c-3.1,0-5.4,2.5-5.4,5.8s2.3,5.9,5.4,5.9
	c1.8,0,3.9-1,5.4-2.6l3.9,4.1c-2.5,2.7-6.2,4.4-9.6,4.4c-6.9,0-12-5-12-11.7c0-6.6,5.2-11.5,12.2-11.5
	C15.7,37.2,19.3,38.8,21.6,41.3z M46.8,48.8c0,6.7-5.3,11.7-12.4,11.7S22,55.5,22,48.8s5.3-11.5,12.4-11.5
	C41.5,37.2,46.8,42.1,46.8,48.8z M28.9,48.8c0,3.4,2.6,6,5.6,6s5.4-2.6,5.4-6s-2.4-5.9-5.4-5.9S28.9,45.4,28.9,48.8z M65.1,60.2
	l-9.6-12.6v12.6h-6.2V37.4h5.8l9.6,12.7V37.4h6.2v22.7h-5.8V60.2z M93.5,39.8L91,45c-2.3-1.3-5.6-2.5-7.6-2.5
	c-1.1,0-1.9,0.4-1.9,1.2c0,3.3,11.9,1.4,11.9,9.6c0,4.8-4.3,7.1-9.4,7.1c-3.9,0-8.1-1.4-10.9-3.6l2.5-5.1c2.3,2,6.1,3.5,8.5,3.5
	c1.4,0,2.3-0.5,2.3-1.5c0-3.4-11.9-1.3-11.9-9.3c0-4.4,3.7-7.2,9.4-7.2C87.5,37.1,91.1,38.2,93.5,39.8z M102.7,42.6v3.6h10.7v5.2
	h-10.7V55h12.2v5.2H96V37.4h18.6v5.2H102.7z M128.4,54h-3.6v6.1h-6.7V37.4h10.6c6.1,0,9.6,2.9,9.6,8.1c0,3.4-1.4,5.8-3.8,7.2
	l4.6,7.4h-7.7L128.4,54z M128.7,48.8c2,0,3.2-1.1,3.2-3.1s-1.2-3.1-3.2-3.1h-3.9v6.2H128.7z M148.1,60.2l-8.7-22.8h7.2l5.2,15.7
	l5.2-15.7h6.9l-8.8,22.7h-7V60.2z M169.9,56.5l-1.4,3.6h-6.9l9.7-22.7h6.9l9.4,22.7h-7.2l-1.3-3.6H169.9z M174.6,44.2l-2.8,7.4h5.5
	L174.6,44.2z M198.4,42.8v17.3h-6.8V42.8H185v-5.4h20v5.4H198.4z M207.1,60.2V37.4h6.7v22.7h-6.7V60.2z M241.1,48.8
	c0,6.7-5.3,11.7-12.4,11.7s-12.4-5-12.4-11.7s5.3-11.5,12.4-11.5C235.9,37.2,241.1,42.1,241.1,48.8z M223.3,48.8c0,3.4,2.6,6,5.6,6
	s5.4-2.6,5.4-6s-2.4-5.9-5.4-5.9S223.3,45.4,223.3,48.8z M259.5,60.2l-9.6-12.6v12.6h-6.2V37.4h5.8l9.6,12.7V37.4h6.2v22.7h-5.8
	V60.2z M282.8,60.2l-8.7-22.7h7.2l5.2,15.7l5.2-15.7h6.9l-8.8,22.7H282.8z M323.8,48.8c0,6.7-5.3,11.7-12.4,11.7s-12.4-5-12.4-11.7
	s5.2-11.5,12.4-11.5S323.8,42.1,323.8,48.8z M306,48.8c0,3.4,2.6,6,5.6,6s5.4-2.6,5.4-6s-2.4-5.9-5.4-5.9
	C308.5,42.9,306,45.4,306,48.8z M337.1,42.8v17.3h-6.7V42.8h-6.6v-5.4h20v5.4H337.1z M352.6,42.6v3.6h10.7v5.2h-10.7V55h12.2v5.2
	h-18.9V37.4h18.5v5.2H352.6z M378.3,54h-3.6v6.1H368V37.4h10.6c6.1,0,9.6,2.9,9.6,8.1c0,3.4-1.4,5.8-3.8,7.2l4.6,7.4h-7.6L378.3,54z
	 M378.6,48.8c2,0,3.2-1.1,3.2-3.1s-1.2-3.1-3.2-3.1h-3.9v6.2H378.6z M410.3,39.8l-2.5,5.2c-2.3-1.3-5.6-2.5-7.6-2.5
	c-1.1,0-1.9,0.4-1.9,1.2c0,3.3,11.9,1.4,11.9,9.6c0,4.8-4.3,7.1-9.4,7.1c-3.9,0-8.1-1.4-10.9-3.6l2.5-5.1c2.3,2,6.1,3.5,8.5,3.5
	c1.4,0,2.3-0.5,2.3-1.5c0-3.4-11.9-1.3-11.9-9.3c0-4.4,3.7-7.2,9.4-7.2C404.3,37.1,407.9,38.2,410.3,39.8z M443.3,48.8
	c0,6.7-5.3,11.7-12.4,11.7s-12.4-5-12.4-11.7s5.2-11.5,12.4-11.5S443.3,42.1,443.3,48.8z M425.4,48.8c0,3.4,2.6,6,5.6,6
	s5.4-2.6,5.4-6s-2.4-5.9-5.4-5.9S425.4,45.4,425.4,48.8z M452.6,42.6v4.5h10.1v5.2h-10.1v7.8h-6.7V37.4h17.6v5.2H452.6z"/>
<polygon id="Keystone" class="st0" points="498.9,0 546.6,0 544.1,15 571.4,15 556.1,88.8 489.6,88.8 474.1,15 502.4,15 "/>
<path id="PA" class="st1" d="M508,31.9c8.3,0,13.1,4.1,13.1,11.5c0,7.7-4.8,12.1-13.1,12.1h-5.1v8.7h-9.5V31.9H508z M502.9,48.1h4.6
	c2.9,0,4.5-1.6,4.5-4.5c0-2.8-1.7-4.4-4.5-4.4h-4.6V48.1z M529.8,59l-1.9,5.2h-9.8l13.6-32.3h9.8l13.3,32.2h-10.2l-1.9-5.2L529.8,59
	L529.8,59z M536.4,41.5l-4,10.5h7.8L536.4,41.5z"/>
</svg>
